<svg width="24" height="24" viewBox="0 0 24 24" fill="none" xmlns="http://www.w3.org/2000/svg">
<path d="M11 20.9999V12.414L8.70702 14.7069C8.3165 15.0974 7.68348 15.0974 7.29296 14.7069C6.90243 14.3164 6.90243 13.6834 7.29296 13.2929L11.293 9.29286L11.3691 9.2245C11.7619 8.90415 12.3409 8.92674 12.707 9.29286L16.707 13.2929L16.7754 13.369C17.0957 13.7618 17.0731 14.3408 16.707 14.7069C16.3409 15.073 15.7619 15.0956 15.3691 14.7753L15.293 14.7069L13 12.414V20.9999C13 21.5522 12.5523 21.9999 12 21.9999C11.4477 21.9999 11 21.5522 11 20.9999Z" fill="#2D2D2D"/>
<path d="M11.6191 1.07509C11.9035 0.957908 12.2293 0.977433 12.5 1.13368L20.5 5.75282L20.6377 5.84852C20.9349 6.09444 21.0683 6.49547 20.9658 6.87782C20.8486 7.31483 20.4525 7.61903 20 7.61903H3.99999C3.54749 7.61903 3.15142 7.31483 3.03417 6.87782C2.91703 6.44066 3.10807 5.97914 3.49999 5.75282L11.5 1.13368L11.6191 1.07509ZM7.73143 5.61903H16.2685L12 3.15419L7.73143 5.61903Z" fill="#2D2D2D"/>
</svg>
