<svg width="244" height="64" viewBox="0 0 244 64" fill="none" xmlns="http://www.w3.org/2000/svg">
<path fill-rule="evenodd" clip-rule="evenodd" d="M47.7376 63.7614L63.7705 47.7285V28.8256L28.8347 63.7614H47.7376Z" fill="#B99949"/>
<path d="M40.3117 43.5825L31.8853 36.2882L33.2162 35.6334C34.024 35.254 33.8955 34.5747 33.77 34.1219L32.1606 28.9663C32.1606 28.9663 35.8139 29.7557 36.637 29.8811C37.2918 29.9852 37.5182 29.6823 37.7201 29.2264L38.7727 26.7143L43.1756 31.567C44.0048 32.3228 44.8064 31.7445 44.6596 30.8633C44.5188 30.0617 42.4504 20.5276 42.4504 20.5276C42.4504 20.5276 44.733 21.8831 45.4887 22.3359C46.2475 22.7887 46.6423 22.7122 47.0461 21.9902C47.4408 21.2711 50.1701 15.8095 50.2711 15.6107C50.372 15.8095 53.0982 21.2711 53.496 21.9902C53.8938 22.7122 54.2946 22.7918 55.0503 22.3359C55.8061 21.8831 58.0917 20.5276 58.0917 20.5276C58.0917 20.5276 56.672 27.0632 56.1059 29.7649L63.7736 22.0972V0H54.1263L0.125448 54.0009L0 63.7613H22.1095L40.7523 45.1185C41.0583 44.0446 40.5779 43.8243 40.3117 43.5825Z" fill="#B99949"/>
<path d="M77.3831 42.9431C77.1751 41.8569 76.2235 41.2327 75.0088 41.2327C73.3749 41.2327 72.2244 42.3709 72.2244 44.4179C72.2244 46.4648 73.3841 47.603 75.0027 47.603C76.196 47.603 77.1536 47.0064 77.3831 45.9416L79.2067 45.9508C78.9283 47.6826 77.3556 49.0809 74.9812 49.0809C72.3499 49.0809 70.41 47.3491 70.41 44.4179C70.41 41.4867 72.3744 39.7549 74.9812 39.7549C77.1934 39.7549 78.9007 40.9237 79.2067 42.94H77.3831V42.9431Z" fill="#B99949"/>
<path d="M79.4026 48.9554L82.9182 39.8803H85.1518L88.6704 48.9554H86.7398L85.9106 46.7188H82.1563L81.3333 48.9554H79.4026ZM85.4241 45.4L84.0748 41.7437H83.9983L82.6459 45.4H85.4241Z" fill="#B99949"/>
<path d="M97.5007 48.9554H95.8913L91.1855 42.7748H91.1028V48.9554H89.2946V39.8803H90.9131L95.6129 46.067H95.7016V39.8803H97.5007V48.9554Z" fill="#B99949"/>
<path d="M98.125 48.9554L101.641 39.8803H103.874L107.393 48.9554H105.462L104.633 46.7188H100.879L100.056 48.9554H98.125ZM104.147 45.4L102.797 41.7437H102.721L101.368 45.4H104.147Z" fill="#B99949"/>
<path d="M108.02 48.9554V39.8803H111.471C114.445 39.8803 116.248 41.5815 116.248 44.4087C116.248 47.2359 114.442 48.9554 111.401 48.9554H108.017H108.02ZM111.315 47.5357C113.396 47.5357 114.455 46.4985 114.455 44.4117C114.455 42.325 113.396 41.3061 111.367 41.3061H109.828V47.5357H111.315Z" fill="#B99949"/>
<path d="M119.084 48.9554H117.276V39.8803H119.084V48.9554Z" fill="#B99949"/>
<path d="M119.711 48.9554L123.227 39.8803H125.46L128.979 48.9554H127.048L126.219 46.7188H122.465L121.642 48.9554H119.711ZM125.733 45.4L124.383 41.7437H124.307L122.954 45.4H125.733Z" fill="#B99949"/>
<path d="M137.809 48.9554H136.2L131.494 42.7748H131.412V48.9554H129.603V39.8803H131.222L135.922 46.067H136.01V39.8803H137.809V48.9554Z" fill="#B99949"/>
<path d="M141.086 39.8803H143.032L144.831 46.5505H144.923L146.845 39.8803H148.613L150.538 46.5535H150.626L152.426 39.8803H154.372L151.554 48.9554H149.77L147.772 42.5882H147.695L145.691 48.9554H143.907L141.089 39.8803H141.086Z" fill="#B99949"/>
<path d="M158.735 49.0809C156.113 49.0809 154.148 47.3491 154.148 44.4179C154.148 41.4867 156.113 39.7549 158.735 39.7549C161.357 39.7549 163.321 41.4836 163.321 44.4179C163.321 47.3521 161.351 49.0809 158.735 49.0809ZM158.735 41.2327C157.11 41.2327 155.966 42.3526 155.966 44.4179C155.966 46.4832 157.11 47.603 158.735 47.603C160.359 47.603 161.504 46.4832 161.504 44.4179C161.504 42.3526 160.362 41.2327 158.735 41.2327Z" fill="#B99949"/>
<path d="M168.682 49.0809C166.06 49.0809 164.095 47.3491 164.095 44.4179C164.095 41.4867 166.06 39.7549 168.682 39.7549C171.304 39.7549 173.272 41.4836 173.272 44.4179C173.272 47.3521 171.301 49.0809 168.682 49.0809ZM168.682 41.2327C167.06 41.2327 165.913 42.3526 165.913 44.4179C165.913 46.4832 167.057 47.603 168.682 47.603C170.307 47.603 171.451 46.4832 171.451 44.4179C171.451 42.3526 170.31 41.2327 168.682 41.2327Z" fill="#B99949"/>
<path d="M174.293 48.9554V39.8803H177.745C180.719 39.8803 182.521 41.5815 182.521 44.4087C182.521 47.2359 180.716 48.9554 177.674 48.9554H174.29H174.293ZM177.589 47.5357C179.669 47.5357 180.728 46.4985 180.728 44.4117C180.728 42.325 179.669 41.3061 177.644 41.3061H176.105V47.5357H177.592H177.589Z" fill="#B99949"/>
<path d="M192.991 42.9431C192.78 41.8569 191.832 41.2327 190.617 41.2327C188.983 41.2327 187.833 42.3709 187.833 44.4179C187.833 46.4648 188.992 47.603 190.611 47.603C191.804 47.603 192.762 47.0064 192.991 45.9416L194.815 45.9508C194.536 47.6826 192.964 49.0809 190.589 49.0809C187.958 49.0809 186.015 47.3491 186.015 44.4179C186.015 41.4867 187.979 39.7549 190.589 39.7549C192.802 39.7549 194.509 40.9237 194.815 42.94H192.991V42.9431Z" fill="#B99949"/>
<path d="M200.12 49.0809C197.498 49.0809 195.534 47.3491 195.534 44.4179C195.534 41.4867 197.498 39.7549 200.12 39.7549C202.743 39.7549 204.71 41.4836 204.71 44.4179C204.71 47.3521 202.74 49.0809 200.12 49.0809ZM200.12 41.2327C198.499 41.2327 197.351 42.3526 197.351 44.4179C197.351 46.4832 198.496 47.603 200.12 47.603C201.745 47.603 202.889 46.4832 202.889 44.4179C202.889 42.3526 201.748 41.2327 200.12 41.2327Z" fill="#B99949"/>
<path d="M213.837 39.8803V45.81C213.837 47.7591 212.219 49.0931 209.786 49.0931C207.354 49.0931 205.735 47.7591 205.735 45.81V39.8803H207.543V45.6723C207.543 46.8106 208.412 47.6275 209.786 47.6275C211.16 47.6275 212.029 46.8136 212.029 45.6723V39.8803H213.837Z" fill="#B99949"/>
<path d="M223.319 48.9554H221.71L217.004 42.7748H216.921V48.9554H215.113V39.8803H216.732L221.431 46.067H221.52V39.8803H223.319V48.9554Z" fill="#B99949"/>
<path d="M231.317 42.9431C231.106 41.8569 230.158 41.2327 228.943 41.2327C227.309 41.2327 226.159 42.3709 226.159 44.4179C226.159 46.4648 227.318 47.603 228.937 47.603C230.13 47.603 231.088 47.0064 231.317 45.9416L233.141 45.9508C232.862 47.6826 231.29 49.0809 228.915 49.0809C226.284 49.0809 224.341 47.3491 224.341 44.4179C224.341 41.4867 226.305 39.7549 228.915 39.7549C231.127 39.7549 232.835 40.9237 233.141 42.94H231.317V42.9431Z" fill="#B99949"/>
<path d="M235.919 48.9554H234.111V39.8803H235.919V48.9554Z" fill="#B99949"/>
<path d="M237.195 39.8803H239.003V47.5785H243.4V48.9554H237.195V39.8803Z" fill="#B99949"/>
<path d="M72.968 57.8469C72.7599 56.7607 71.8083 56.1365 70.5936 56.1365C68.9597 56.1365 67.8093 57.2747 67.8093 59.3217C67.8093 61.3686 68.9689 62.5069 70.5875 62.5069C71.7808 62.5069 72.7385 61.9102 72.968 60.8454L74.7916 60.8546C74.5131 62.5864 72.9404 63.9847 70.5661 63.9847C67.9347 63.9847 65.9918 62.2529 65.9918 59.3217C65.9918 56.3905 67.9562 54.6587 70.5661 54.6587C72.7783 54.6587 74.4856 55.8275 74.7916 57.8439H72.968V57.8469Z" fill="#B99949"/>
<path d="M80.0971 63.9847C77.475 63.9847 75.5106 62.2529 75.5106 59.3217C75.5106 56.3905 77.475 54.6587 80.0971 54.6587C82.7193 54.6587 84.6836 56.3874 84.6836 59.3217C84.6836 62.256 82.7132 63.9847 80.0971 63.9847ZM80.0971 56.1365C78.4724 56.1365 77.3281 57.2564 77.3281 59.3217C77.3281 61.387 78.4724 62.5069 80.0971 62.5069C81.7218 62.5069 82.8662 61.387 82.8662 59.3217C82.8662 57.2564 81.7249 56.1365 80.0971 56.1365Z" fill="#B99949"/>
<path d="M93.9148 63.8593H92.3054L87.5995 57.6786H87.5169V63.8593H85.7086V54.7841H87.3272L92.0269 60.9709H92.1157V54.7841H93.9148V63.8593Z" fill="#B99949"/>
<path d="M98.7307 56.0539C97.5986 56.0539 96.9255 56.5557 96.9224 57.2381C96.9133 57.9969 97.8006 58.309 98.6175 58.4864L99.5538 58.7006C101.056 59.0249 102.485 59.7409 102.488 61.3136C102.482 62.9138 101.093 64 98.7001 64C96.3074 64 94.8969 62.9842 94.8235 61.182H96.6042C96.6777 62.1336 97.5558 62.5956 98.6848 62.5956C99.8139 62.5956 100.674 62.0785 100.68 61.3014C100.674 60.5976 99.9638 60.2916 98.8868 60.0438L97.7516 59.7776C96.1086 59.3921 95.0897 58.6425 95.0897 57.339C95.0836 55.7357 96.6593 54.6618 98.7552 54.6618C100.851 54.6618 102.32 55.748 102.353 57.2809H100.612C100.521 56.5098 99.8078 56.0539 98.7307 56.0539Z" fill="#B99949"/>
<path d="M103.409 54.7842H109.902V56.161H105.217V58.6241H109.565V60.001H105.217V62.4793H109.942V63.8562H103.409V54.7811V54.7842Z" fill="#B99949"/>
<path d="M112.87 63.8593H111.061V54.7841H112.87V63.8593Z" fill="#B99949"/>
<path d="M114.146 54.7841H115.954V62.4824H120.351V63.8593H114.146V54.7841Z" fill="#B99949"/>
<path d="M130.671 57.8469C130.463 56.7607 129.511 56.1365 128.297 56.1365C126.663 56.1365 125.512 57.2747 125.512 59.3217C125.512 61.3686 126.672 62.5069 128.291 62.5069C129.484 62.5069 130.442 61.9102 130.671 60.8454L132.495 60.8546C132.216 62.5864 130.644 63.9847 128.269 63.9847C125.638 63.9847 123.695 62.2529 123.695 59.3217C123.695 56.3905 125.659 54.6587 128.269 54.6587C130.481 54.6587 132.189 55.8275 132.495 57.8439H130.671V57.8469Z" fill="#B99949"/>
<path d="M132.691 63.8593L136.206 54.7841H138.44L141.958 63.8593H140.028L139.199 61.6226H135.444L134.621 63.8593H132.691ZM138.712 60.3008L137.363 56.6445H137.286L135.937 60.3008H138.715H138.712Z" fill="#B99949"/>
<path d="M150.789 63.8593H149.179L144.474 57.6786H144.391V63.8593H142.583V54.7841H144.201L148.901 60.9709H148.99V54.7841H150.789V63.8593Z" fill="#B99949"/>
<path d="M151.413 63.8593L154.928 54.7841H157.162L160.681 63.8593H158.75L157.921 61.6226H154.167L153.344 63.8593H151.413ZM157.434 60.3008L156.085 56.6445H156.009L154.659 60.3008H157.437H157.434Z" fill="#B99949"/>
<path d="M161.308 63.8593V54.7841H164.759C167.733 54.7841 169.536 56.4854 169.536 59.3125C169.536 62.1397 167.73 63.8593 164.689 63.8593H161.305H161.308ZM164.603 62.4365C166.684 62.4365 167.743 61.3992 167.743 59.3125C167.743 57.2258 166.684 56.2069 164.655 56.2069H163.116V62.4365H164.603Z" fill="#B99949"/>
<path d="M172.369 63.8593H170.561V54.7841H172.369V63.8593Z" fill="#B99949"/>
<path d="M173.648 54.7842H180.141V56.161H175.456V58.6241H179.804V60.001H175.456V62.4793H180.18V63.8562H173.648V54.7811V54.7842Z" fill="#B99949"/>
<path d="M189.503 63.8593H187.894L183.188 57.6786H183.105V63.8593H181.297V54.7841H182.916L187.615 60.9709H187.704V54.7841H189.503V63.8593Z" fill="#B99949"/>
<path d="M193.496 63.8593V54.7841H196.948C199.922 54.7841 201.724 56.4854 201.724 59.3125C201.724 62.1397 199.919 63.8593 196.877 63.8593H193.493H193.496ZM196.792 62.4365C198.872 62.4365 199.931 61.3992 199.931 59.3125C199.931 57.2258 198.872 56.2069 196.844 56.2069H195.305V62.4365H196.792Z" fill="#B99949"/>
<path d="M210.854 54.7841V60.7139C210.854 62.6629 209.235 63.9969 206.803 63.9969C204.37 63.9969 202.752 62.6629 202.752 60.7139V54.7841H204.56V60.5762C204.56 61.7144 205.429 62.5313 206.803 62.5313C208.177 62.5313 209.046 61.7175 209.046 60.5762V54.7841H210.854Z" fill="#B99949"/>
<path d="M214.853 54.7842H218.675C220.838 54.7842 221.912 55.7847 221.912 57.1371C221.912 58.2416 221.141 58.8597 220.168 59.0678V59.1565C221.229 59.2054 222.303 60.0101 222.303 61.384C222.303 62.7578 221.181 63.8562 218.895 63.8562H214.853V54.7811V54.7842ZM218.451 58.6455C219.391 58.6455 220.103 58.1498 220.103 57.3513C220.103 56.6506 219.553 56.1427 218.491 56.1427H216.664V58.6455H218.454H218.451ZM218.607 62.4855C219.92 62.4855 220.465 61.9806 220.465 61.2585C220.465 60.4477 219.773 59.8266 218.656 59.8266H216.661V62.4855H218.607Z" fill="#B99949"/>
<path d="M227.52 63.9847C224.898 63.9847 222.934 62.2529 222.934 59.3217C222.934 56.3905 224.898 54.6587 227.52 54.6587C230.142 54.6587 232.107 56.3874 232.107 59.3217C232.107 62.256 230.136 63.9847 227.52 63.9847ZM227.52 56.1365C225.895 56.1365 224.751 57.2564 224.751 59.3217C224.751 61.387 225.895 62.5069 227.52 62.5069C229.145 62.5069 230.289 61.387 230.289 59.3217C230.289 57.2564 229.148 56.1365 227.52 56.1365Z" fill="#B99949"/>
<path d="M234.943 63.8593H233.135V54.7841H234.943V63.8593Z" fill="#B99949"/>
<path d="M239.762 56.0539C238.63 56.0539 237.957 56.5557 237.954 57.2381C237.945 57.9969 238.832 58.309 239.649 58.4864L240.585 58.7006C242.087 59.0249 243.516 59.7409 243.519 61.3136C243.513 62.9138 242.124 64 239.731 64C237.339 64 235.928 62.9842 235.855 61.182H237.635C237.709 62.1336 238.587 62.5956 239.716 62.5956C240.845 62.5956 241.705 62.0785 241.711 61.3014C241.705 60.5976 240.995 60.2916 239.918 60.0438L238.783 59.7776C237.14 59.3921 236.121 58.6425 236.121 57.339C236.115 55.7357 237.691 54.6618 239.786 54.6618C241.882 54.6618 243.351 55.748 243.385 57.2809H241.644C241.552 56.5098 240.839 56.0539 239.762 56.0539Z" fill="#B99949"/>
</svg>
